<svg width="20" height="20" viewBox="0 0 20 20" fill="none" xmlns="http://www.w3.org/2000/svg">
<path fill-rule="evenodd" clip-rule="evenodd" d="M9.0625 3.125C5.78331 3.125 3.125 5.78331 3.125 9.0625C3.125 12.3417 5.78331 15 9.0625 15C12.3417 15 15 12.3417 15 9.0625C15 5.78331 12.3417 3.125 9.0625 3.125ZM1.875 9.0625C1.875 5.09295 5.09295 1.875 9.0625 1.875C13.032 1.875 16.25 5.09295 16.25 9.0625C16.25 10.8222 15.6176 12.4343 14.5677 13.6837L17.942 17.0581C18.1861 17.3021 18.1861 17.6979 17.942 17.9419C17.6979 18.186 17.3022 18.186 17.0581 17.9419L13.6838 14.5676C12.4343 15.6176 10.8223 16.25 9.0625 16.25C5.09295 16.25 1.875 13.032 1.875 9.0625Z" fill="#6B6C6C"/>
</svg>
